<?xml version="1.0" encoding="UTF-8"?>
<svg version="1.1" xmlns="http://www.w3.org/2000/svg" width="1064" height="168">
<path d="M0 0 C351.12 0 702.24 0 1064 0 C1064 55.44 1064 110.88 1064 168 C712.88 168 361.76 168 0 168 C0 112.56 0 57.12 0 0 Z " fill="#FDFEFE" transform="translate(0,0)"/>
<path d="M0 0 C81 0 81 0 92.8125 10.5 C93.8953125 11.7375 93.8953125 11.7375 95 13 C95.680625 13.721875 96.36125 14.44375 97.0625 15.1875 C103.55422407 24.61097042 105.02119584 35.48070521 103.375 46.6875 C101.26085001 56.25681049 96.7348141 63.88727716 89 70 C88.34 70 87.68 70 87 70 C87 70.66 87 71.32 87 72 C88.0828125 72.37125 88.0828125 72.37125 89.1875 72.75 C97.13946885 76.28420838 102.63986142 82.95855495 106.16015625 90.73828125 C110.31203777 101.91939474 108.95989427 116.28484808 104.0859375 127.01171875 C99.12373989 136.31079638 93.31235271 140.25597126 84 145 C56.91476494 152.22272935 28.03172806 149 0 149 C0 99.83 0 50.66 0 0 Z " fill="#0292D2" transform="translate(4,11)"/>
<path d="M0 0 C1.49929761 1.01834453 2.97760211 2.06907633 4.421875 3.1640625 C6.5380949 4.57632424 7.77483239 5.28053491 10.32421875 5.43359375 C12.89277092 4.1373001 12.89277092 4.1373001 15.57421875 2.24609375 C29.29220643 -6.1287461 44.47425626 -7.26963859 59.95703125 -3.59375 C68.15845964 -1.09145804 74.26736873 3.00435384 78.80558777 10.38035583 C84.31955773 21.46630256 83.73588623 34.67425897 83.6171875 46.7421875 C83.61157507 48.4471041 83.60731279 50.15202563 83.60432434 51.85694885 C83.59300494 56.29072006 83.56365309 60.72418476 83.5302124 65.15783691 C83.49922908 69.70348975 83.48575933 74.24919332 83.47070312 78.79492188 C83.4387675 87.6746338 83.38610934 96.55404005 83.32421875 105.43359375 C75.40421875 105.43359375 67.48421875 105.43359375 59.32421875 105.43359375 C59.32010986 103.24428223 59.31600098 101.0549707 59.31176758 98.79931641 C59.29450674 91.53485963 59.24989993 84.27075157 59.19212818 77.00650978 C59.15795702 72.60567139 59.13276367 68.20517651 59.12866211 63.80419922 C59.12435781 59.55040583 59.09572048 55.29738601 59.05078697 51.04383469 C59.0378796 49.42773331 59.03348013 47.81153903 59.03806496 46.19539261 C59.05758867 37.2168909 59.03129587 28.91155053 53.32421875 21.43359375 C47.96400533 16.80373648 41.65814625 16.77135217 34.8046875 16.984375 C27.46446811 17.93176583 22.08732825 20.92649875 17.40433693 26.67430496 C15.54983211 29.69490919 15.62298775 32.84437133 15.66479492 36.27490234 C15.65431122 37.03655701 15.64382751 37.79821167 15.63302612 38.58294678 C15.60438419 41.08306155 15.61055434 43.58178253 15.6171875 46.08203125 C15.60406579 47.82225267 15.5887601 49.56245887 15.57136536 51.30264282 C15.53155752 55.8696498 15.52132765 60.43625797 15.51733398 65.00341797 C15.50799456 69.66906805 15.47057596 74.33448458 15.43554688 79 C15.37101366 88.14457545 15.34033542 97.28880466 15.32421875 106.43359375 C7.07421875 106.43359375 -1.17578125 106.43359375 -9.67578125 106.43359375 C-9.68512695 104.23904541 -9.69447266 102.04449707 -9.70410156 99.78344727 C-9.73797165 92.50702881 -9.79357595 85.23089096 -9.85968399 77.95469761 C-9.89907906 73.54603722 -9.93130638 69.13757417 -9.94677734 64.72875977 C-9.96199678 60.46856384 -9.996535 56.20891077 -10.04409027 51.94895744 C-10.05884984 50.32924066 -10.06681913 48.70944636 -10.0676651 47.08966255 C-10.07790421 37.30912109 -10.27940701 28.96451618 -16.61328125 20.99609375 C-22.87500559 16.25236319 -30.16808818 16.76265738 -37.67578125 17.43359375 C-43.22241644 18.87192927 -46.49607604 21.77682593 -49.66796875 26.45703125 C-52.23352577 31.48870509 -52.93470815 36.01974663 -52.99462891 41.63232422 C-53.00467453 42.32570389 -53.01472015 43.01908356 -53.02507019 43.73347473 C-53.05575083 46.00590246 -53.07289468 48.27821321 -53.08984375 50.55078125 C-53.10856761 52.13405351 -53.12814193 53.71731591 -53.14852905 55.30056763 C-53.19972769 59.45314715 -53.23941879 63.60575897 -53.27667236 67.75848389 C-53.31678921 72.00183016 -53.36784641 76.24504346 -53.41796875 80.48828125 C-53.51458273 88.80330102 -53.59802167 97.11837626 -53.67578125 105.43359375 C-61.59578125 105.43359375 -69.51578125 105.43359375 -77.67578125 105.43359375 C-77.67578125 69.46359375 -77.67578125 33.49359375 -77.67578125 -3.56640625 C-70.74578125 -3.56640625 -63.81578125 -3.56640625 -56.67578125 -3.56640625 C-53.67578125 3.43359375 -53.67578125 3.43359375 -53.67578125 6.43359375 C-53.08152344 5.9746875 -52.48726562 5.51578125 -51.875 5.04296875 C-45.7732843 0.52599103 -39.94754957 -2.40578499 -32.67578125 -4.56640625 C-32.03253906 -4.75847656 -31.38929688 -4.95054688 -30.7265625 -5.1484375 C-20.30688941 -7.27206611 -9.14512449 -5.35356923 0 0 Z " fill="#58B640" transform="translate(858.67578125,53.56640625)"/>
<path d="M0 0 C0.34057617 2.52197266 0.34057617 2.52197266 0.29296875 5.6640625 C0.28330078 6.78554688 0.27363281 7.90703125 0.26367188 9.0625 C0.23853516 10.238125 0.21339844 11.41375 0.1875 12.625 C0.16719727 14.40003906 0.16719727 14.40003906 0.14648438 16.2109375 C0.11103916 19.14107539 0.06162769 22.07031459 0 25 C-3.93014707 23.73456565 -7.7686038 22.31524882 -11.60546875 20.79150391 C-29.022547 13.96532309 -47.51543965 12.09158849 -65.16015625 19.2890625 C-76.92654905 24.74213673 -82.33312574 31.5751023 -86.97265625 43.5 C-92.17896649 60.16019276 -90.14352892 80.47790506 -83.3125 96.375 C-77.40843304 106.71855917 -68.35887337 114.1382326 -56.875 117.375 C-42.49211283 119.818818 -29.03953005 117.14171302 -15 114 C-15 103.44 -15 92.88 -15 82 C-17.5575 82.020625 -20.115 82.04125 -22.75 82.0625 C-29.84430564 82.08437069 -36.96838132 82.04698734 -44 81 C-44.33 80.67 -44.66 80.34 -45 80 C-45 73.4 -45 66.8 -45 60 C-26.85 60 -8.7 60 10 60 C10 83.43 10 106.86 10 131 C-0.91350307 136.45675154 -11.87249106 140.41494564 -24 142 C-24.78632812 142.11085937 -25.57265625 142.22171875 -26.3828125 142.3359375 C-49.84702462 145.05749188 -73.47839629 143.46192275 -93 129 C-94.5159375 127.88625 -94.5159375 127.88625 -96.0625 126.75 C-96.701875 126.1725 -97.34125 125.595 -98 125 C-98 124.34 -98 123.68 -98 123 C-98.66 123 -99.32 123 -100 123 C-116.17853381 102.08551032 -119.41418761 75.88437053 -116.53125 50.2109375 C-114.01410741 32.20027882 -106.23795522 15.70676318 -92 4 C-67.39854787 -12.74802605 -25.90803041 -17.27202027 0 0 Z " fill="#59B640" transform="translate(635,19)"/>
<path d="M0 0 C7.99416397 7.26576634 11.02688242 16.79015876 12.3125 27.25 C12.39590837 29.80873505 12.43034258 32.36935285 12.42602539 34.92944336 C12.42617142 35.66198334 12.42631744 36.39452332 12.4264679 37.14926147 C12.42577686 39.54615343 12.41802276 41.94296554 12.41015625 44.33984375 C12.40828919 46.01135719 12.40686665 47.68287119 12.40586853 49.35438538 C12.40206603 53.73554009 12.39225529 58.11666121 12.38116455 62.49780273 C12.3709015 66.97574408 12.36636046 71.45369089 12.36132812 75.93164062 C12.35063083 84.70444416 12.33305257 93.47721402 12.3125 102.25 C4.3925 102.25 -3.5275 102.25 -11.6875 102.25 C-12.0175 97.96 -12.3475 93.67 -12.6875 89.25 C-13.96625 90.466875 -15.245 91.68375 -16.5625 92.9375 C-26.17558375 101.45065411 -36.76538472 104.85880431 -49.5078125 104.55078125 C-60.38452214 103.52190331 -68.65418069 99.7170344 -75.6875 91.25 C-81.10400871 82.23208923 -81.98486553 72.35921247 -80.109375 62.08203125 C-77.61937188 53.33306574 -72.80630616 46.56629972 -65.125 41.58984375 C-58.2995692 38.02105905 -51.45581644 36.10251268 -43.7578125 35.6171875 C-42.46746094 35.53339844 -41.17710937 35.44960937 -39.84765625 35.36328125 C-39.1839502 35.32412598 -38.52024414 35.2849707 -37.83642578 35.24462891 C-35.82394159 35.12567628 -33.81243371 34.995491 -31.80078125 34.86328125 C-25.08308642 34.44133232 -18.4180789 34.14645263 -11.6875 34.25 C-13.34963769 23.50447164 -13.34963769 23.50447164 -19.6875 15.25 C-30.53801755 9.35014741 -42.77544944 10.16006814 -54.43359375 13.12109375 C-59.27611629 14.80115259 -63.59121215 17.16730997 -68.0078125 19.7265625 C-70.6875 21.25 -70.6875 21.25 -73.6875 22.25 C-73.6875 14.66 -73.6875 7.07 -73.6875 -0.75 C-51.28286258 -10.61870934 -20.90058122 -16.47930442 0 0 Z " fill="#0192D2" transform="translate(288.6875,57.75)"/>
<path d="M0 0 C8.73787845 6.76540378 13.20461749 14.71034685 15.8515625 25.43359375 C16.02209338 28.1838883 16.1059246 30.82631585 16.07861328 33.57202148 C16.07890533 34.35332932 16.07919739 35.13463715 16.07949829 35.93962097 C16.07811498 38.49892637 16.06260135 41.05793353 16.046875 43.6171875 C16.04314131 45.40080099 16.04029602 47.18441655 16.03829956 48.96803284 C16.03069113 53.64514911 16.01106679 58.32213967 15.9888916 62.99920654 C15.96837287 67.77875061 15.95928499 72.55831514 15.94921875 77.33789062 C15.9278181 86.7031889 15.89265888 96.06836117 15.8515625 105.43359375 C8.2615625 105.43359375 0.6715625 105.43359375 -7.1484375 105.43359375 C-7.4784375 101.14359375 -7.8084375 96.85359375 -8.1484375 92.43359375 C-9.3653125 93.62984375 -10.5821875 94.82609375 -11.8359375 96.05859375 C-21.7576752 104.9111109 -32.61064257 107.77035201 -45.57421875 107.6484375 C-55.22509189 107.06833037 -63.74474363 103.31564349 -70.3984375 96.24609375 C-76.80562856 88.10581002 -78.17355286 79.59723753 -77.1484375 69.43359375 C-75.21366103 58.88162056 -69.99666705 50.54493683 -61.1484375 44.43359375 C-49.43019437 38.09032892 -35.89183407 38.09861144 -22.8984375 37.80859375 C-21.4596149 37.77029439 -20.02081229 37.73123636 -18.58203125 37.69140625 C-15.10435255 37.59675014 -11.62651898 37.51226312 -8.1484375 37.43359375 C-8.25670938 35.85854076 -8.37933745 34.28447138 -8.5078125 32.7109375 C-8.57452148 31.83429443 -8.64123047 30.95765137 -8.70996094 30.05444336 C-9.59002594 24.7941439 -12.38949218 20.8222348 -16.5234375 17.55859375 C-29.23043439 12.11273794 -42.50237578 13.56324589 -55.1484375 18.43359375 C-59.93548043 20.56209067 -64.5163706 22.97576234 -69.1484375 25.43359375 C-69.1484375 17.84359375 -69.1484375 10.25359375 -69.1484375 2.43359375 C-49.10907371 -6.81534338 -19.90562814 -12.95018665 0 0 Z " fill="#59B640" transform="translate(740.1484375,54.56640625)"/>
<path d="M0 0 C7.71125049 7.0891421 12.44725539 15.93258201 13.89453125 26.2890625 C14.05888672 27.27712891 14.05888672 27.27712891 14.2265625 28.28515625 C14.95418434 33.41731563 14.99540969 38.55248784 15.01953125 43.7265625 C15.0242041 44.43756104 15.02887695 45.14855957 15.03369141 45.88110352 C15.01754289 51.04303922 15.01754289 51.04303922 13.89453125 53.2890625 C-10.19546875 53.2890625 -34.28546875 53.2890625 -59.10546875 53.2890625 C-55.84952963 65.22750593 -53.49254084 72.00987203 -43.10546875 78.2890625 C-33.06690887 83.66686244 -19.91721534 82.11822173 -9.2265625 79.35546875 C-4.74111973 77.82289569 -0.62644476 75.75942162 3.53125 73.49609375 C5.89453125 72.2890625 5.89453125 72.2890625 7.89453125 72.2890625 C7.89453125 79.5490625 7.89453125 86.8090625 7.89453125 94.2890625 C-10.76348105 103.61806865 -32.13887171 106.66080469 -52.375 100.25390625 C-65.65290416 95.05965695 -73.39778301 87.25344862 -79.7109375 74.64453125 C-83.54751357 65.41310592 -84.5773923 57.4187263 -84.48046875 47.4140625 C-84.49207031 46.22425781 -84.50367188 45.03445312 -84.515625 43.80859375 C-84.46188563 27.41808715 -79.79939386 13.34763686 -68.3203125 1.41015625 C-50.73494361 -15.4308584 -18.72642532 -15.217392 0 0 Z " fill="#59B640" transform="translate(1047.10546875,58.7109375)"/>
<path d="M0 0 C10.82726516 -0.36754507 20.90874614 2.27892205 29.44921875 9.15625 C37.18865534 17.82637834 39.61855308 28.73465996 39.56274414 40.06762695 C39.56289017 40.84864273 39.56303619 41.62965851 39.56318665 42.43434143 C39.56249245 45.00443339 39.55472321 47.57445202 39.546875 50.14453125 C39.54500907 51.93100444 39.54358599 53.71747814 39.54258728 55.50395203 C39.53877591 60.19749371 39.52895742 64.89100427 39.5178833 69.58453369 C39.5076395 74.37731505 39.5030833 79.17010146 39.49804688 83.96289062 C39.48733389 93.36069293 39.46974828 102.758464 39.44921875 112.15625 C31.52921875 112.15625 23.60921875 112.15625 15.44921875 112.15625 C15.43463623 110.09334717 15.42005371 108.03044434 15.4050293 105.9050293 C15.35445385 99.0517341 15.28781993 92.19866067 15.21350384 85.34558392 C15.16897684 81.19484628 15.12968305 77.04420281 15.1027832 72.89331055 C15.07657227 68.87955559 15.03604778 64.86616653 14.98603249 60.85264015 C14.96948299 59.32947185 14.95789515 57.80624044 14.95160484 56.28299522 C15.04853133 41.44289802 15.04853133 41.44289802 9.26171875 28.15625 C1.79878107 22.8492721 -5.57313732 22.15748711 -14.55078125 23.15625 C-20.27081947 24.77876084 -24.45242812 28.05292116 -27.55078125 33.15625 C-32.14675371 41.51537909 -32.15492447 49.94000588 -32.16015625 59.2265625 C-32.17516455 60.75928471 -32.19189719 62.2919909 -32.21026611 63.82467651 C-32.25365526 67.82601736 -32.27387487 71.82714017 -32.28900146 75.82867432 C-32.3086761 79.924975 -32.35063385 84.0210437 -32.390625 88.1171875 C-32.46561861 96.13017556 -32.51403192 104.1429952 -32.55078125 112.15625 C-40.80078125 112.15625 -49.05078125 112.15625 -57.55078125 112.15625 C-57.55078125 75.85625 -57.55078125 39.55625 -57.55078125 2.15625 C-50.62078125 2.15625 -43.69078125 2.15625 -36.55078125 2.15625 C-34.90078125 5.45625 -33.25078125 8.75625 -31.55078125 12.15625 C-30.12765625 11.08375 -28.70453125 10.01125 -27.23828125 8.90625 C-18.71991259 2.95423569 -10.20396228 0.62505129 0 0 Z " fill="#0292D2" transform="translate(437.55078125,47.84375)"/>
<path d="M0 0 C3.9909375 0.061875 3.9909375 0.061875 8.0625 0.125 C8.0625 8.375 8.0625 16.625 8.0625 25.125 C-3.3125 24.8125 -3.3125 24.8125 -6.83349609 24.67456055 C-14.2157052 24.57747567 -19.8250269 25.84949286 -25.9375 30.125 C-32.52683899 37.10105943 -34.0112009 45.22543568 -34.14282227 54.58935547 C-34.16276749 55.85020966 -34.18271271 57.11106384 -34.20326233 58.41012573 C-34.22024134 59.77081177 -34.23712033 61.13149906 -34.25390625 62.4921875 C-34.27450116 63.89609351 -34.29549826 65.29999368 -34.31687927 66.70388794 C-34.37183821 70.3830082 -34.4213619 74.06218197 -34.46972656 77.74139404 C-34.52013385 81.50212313 -34.57571913 85.26277536 -34.63085938 89.0234375 C-34.7381203 96.39055975 -34.83963521 103.7577463 -34.9375 111.125 C-38.91665159 111.15386984 -42.89577653 111.17175406 -46.875 111.1875 C-48.57946289 111.20006836 -48.57946289 111.20006836 -50.31835938 111.21289062 C-51.39794922 111.21611328 -52.47753906 111.21933594 -53.58984375 111.22265625 C-55.09019165 111.23051147 -55.09019165 111.23051147 -56.62084961 111.23852539 C-58.9375 111.125 -58.9375 111.125 -59.9375 110.125 C-60.03512523 108.7232167 -60.06381658 107.31655547 -60.06448364 105.91137695 C-60.06730347 105.00271881 -60.07012329 104.09406067 -60.07302856 103.15786743 C-60.07100433 102.15315399 -60.0689801 101.14844055 -60.06689453 100.11328125 C-60.06864685 99.0613559 -60.07039917 98.00943054 -60.07220459 96.92562866 C-60.07662543 93.42956926 -60.07368429 89.93355997 -60.0703125 86.4375 C-60.07098547 84.01993805 -60.07195544 81.60237617 -60.07321167 79.18481445 C-60.07468896 74.11050779 -60.07253309 69.03621869 -60.06787109 63.96191406 C-60.0621738 57.44115297 -60.06545263 50.92043304 -60.07144356 44.39967346 C-60.07504833 39.40531094 -60.07391097 34.41095826 -60.07131577 29.41659546 C-60.07064626 27.01150508 -60.07147572 24.60641382 -60.07379532 22.20132446 C-60.07632048 18.84643165 -60.07248317 15.4916065 -60.06689453 12.13671875 C-60.06891876 11.13200531 -60.07094299 10.12729187 -60.07302856 9.09213257 C-60.06879883 7.72914536 -60.06879883 7.72914536 -60.06448364 6.33862305 C-60.06410662 5.54441452 -60.06372959 4.75020599 -60.06334114 3.93193054 C-59.9375 2.125 -59.9375 2.125 -58.9375 1.125 C-57.38794441 1.02600477 -55.83396327 0.99420476 -54.28125 0.9921875 C-52.87166016 0.99025391 -52.87166016 0.99025391 -51.43359375 0.98828125 C-50.44488281 0.99214844 -49.45617187 0.99601562 -48.4375 1 C-46.95443359 0.99419922 -46.95443359 0.99419922 -45.44140625 0.98828125 C-44.50167969 0.98957031 -43.56195313 0.99085937 -42.59375 0.9921875 C-41.72556641 0.99331543 -40.85738281 0.99444336 -39.96289062 0.99560547 C-37.9375 1.125 -37.9375 1.125 -36.9375 2.125 C-36.540007 4.47223966 -36.19381277 6.82828548 -35.875 9.1875 C-35.69839844 10.47785156 -35.52179688 11.76820312 -35.33984375 13.09765625 C-35.14068359 14.59619141 -35.14068359 14.59619141 -34.9375 16.125 C-34.13699219 15.23748047 -34.13699219 15.23748047 -33.3203125 14.33203125 C-23.93710719 4.38063876 -13.72091601 -0.30326915 0 0 Z " fill="#0493D2" transform="translate(195.9375,48.875)"/>
<path d="M0 0 C8.25 0 16.5 0 25 0 C25.02254812 14.19456383 25.0409134 28.38911586 25.05181217 42.5836935 C25.05704172 49.17404785 25.06414067 55.76438937 25.07543945 62.35473633 C25.08626578 68.70892018 25.09227629 75.06309165 25.09487724 81.41728401 C25.09673195 83.84749611 25.10035343 86.27770749 25.10573006 88.70791435 C25.11293711 92.09882981 25.11399108 95.48969341 25.11352539 98.88061523 C25.11712067 99.89625046 25.12071594 100.91188568 25.12442017 101.95829773 C25.1230455 102.87681519 25.12167084 103.79533264 25.12025452 104.74168396 C25.12117631 105.54456565 25.1220981 106.34744734 25.12304783 107.17465878 C25 109 25 109 24 110 C16.08 110 8.16 110 0 110 C0 73.7 0 37.4 0 0 Z " fill="#0593D3" transform="translate(328,50)"/>
<path d="M0 0 C9.1265625 -0.0928125 9.1265625 -0.0928125 18.4375 -0.1875 C20.33943115 -0.21481201 22.2413623 -0.24212402 24.20092773 -0.27026367 C25.73680998 -0.27903924 27.2726993 -0.28668063 28.80859375 -0.29296875 C29.58303833 -0.30831665 30.35748291 -0.32366455 31.15539551 -0.33947754 C39.31458623 -0.34331716 46.55030681 1.67615909 52.55859375 7.3359375 C56.24464439 11.59137808 57.53487794 16.23957567 57.28515625 21.8203125 C56.54487579 27.47889467 55.24437446 32.37540001 51.75 36.9375 C44.45786172 42.40660371 37.24103221 43.15602626 28.41796875 43.09765625 C27.69565063 43.09664917 26.97333252 43.09564209 26.22912598 43.09460449 C23.54856768 43.08939952 20.86803213 43.07543837 18.1875 43.0625 C12.185625 43.041875 6.18375 43.02125 0 43 C0 28.81 0 14.62 0 0 Z " fill="#FDFEFE" transform="translate(29,94)"/>
<path d="M0 0 C6.105 -0.061875 12.21 -0.12375 18.5 -0.1875 C20.41103516 -0.21481201 22.32207031 -0.24212402 24.29101562 -0.27026367 C25.82942068 -0.27903694 27.36783278 -0.28667888 28.90625 -0.29296875 C30.07559082 -0.3159906 30.07559082 -0.3159906 31.26855469 -0.33947754 C37.08291 -0.34221328 43.10080325 0.31108938 47.5657959 4.45222473 C52.8665604 10.67491516 52.52077065 16.07481763 52 24 C50.86124912 29.13782879 48.05289159 32.70113475 44 36 C38.96106148 38.16950372 34.48070933 38.26500052 29.1015625 38.1953125 C28.36059326 38.19329834 27.61962402 38.19128418 26.85620117 38.18920898 C24.11240365 38.17881688 21.36869501 38.15089472 18.625 38.125 C9.405625 38.063125 9.405625 38.063125 0 38 C0 25.46 0 12.92 0 0 Z " fill="#FDFEFE" transform="translate(29,34)"/>
<path d="M0 0 C0.92274473 13.4515676 0.92274473 13.4515676 -3.44921875 19.2890625 C-8.71393083 25.0974854 -14.06073931 29.54983953 -22.0859375 30.28125 C-30.36859552 30.50869141 -35.46596967 29.93249326 -41.9375 24.5625 C-44.84937041 20.71535995 -44.63330313 16.50363498 -44.4140625 11.84765625 C-43.84246729 7.91659106 -42.81248115 5.81248115 -40 3 C-27.72203414 -3.47383655 -13.34336049 -0.87600022 0 0 Z " fill="#FDFEFC" transform="translate(732,111)"/>
<path d="M0 0 C0.66022156 0.00141495 1.32044312 0.0028299 2.00067139 0.00428772 C4.09945294 0.0098638 6.19812595 0.02241178 8.296875 0.03515625 C9.72395679 0.04017435 11.15104025 0.04473671 12.578125 0.04882812 C16.06774332 0.05982537 19.55729856 0.07707345 23.046875 0.09765625 C23.07748973 1.67696052 23.09917856 3.25643919 23.1171875 4.8359375 C23.13023926 5.71548096 23.14329102 6.59502441 23.15673828 7.5012207 C22.88301277 13.97026684 20.0353178 18.86397976 15.7265625 23.55859375 C9.28752819 29.45854612 2.53789819 30.44855202 -5.90234375 30.38671875 C-11.60893468 29.84601743 -16.19448198 27.42281938 -19.953125 23.09765625 C-21.82463506 17.48312606 -21.86501321 12.02665054 -19.328125 6.66015625 C-13.83901651 0.73769709 -7.69067061 -0.03258759 0 0 Z " fill="#FBFDFE" transform="translate(253.953125,110.90234375)"/>
<path d="M0 0 C4.7475306 3.07344658 7.26235606 7.39879162 9.53515625 12.4609375 C10.16015625 15.3984375 10.16015625 15.3984375 10.16015625 22.3984375 C-6.00984375 22.3984375 -22.17984375 22.3984375 -38.83984375 22.3984375 C-37.46625841 12.78334015 -35.41820408 7.09952382 -27.9375 0.80859375 C-19.73367212 -4.70645628 -8.75508663 -4.01452753 0 0 Z " fill="#FDFEFC" transform="translate(1026.83984375,70.6015625)"/>
<path d="M0 0 C4.85901474 2.29698879 7.66907123 5.15884024 10 10 C10.86008963 15.93365207 10.47720287 20.96405101 7 26 C2.31968068 30.44030295 -1.4009774 31.44816113 -7.83984375 31.33984375 C-11.91317005 30.69901303 -14.98155853 28.74782258 -18 26 C-21.09142022 20.87983526 -21.55340433 16.81074549 -21 11 C-17.28076647 0.82104507 -9.88078983 -0.99227168 0 0 Z " fill="#0291D2" transform="translate(345,4)"/>
<path d="M0 0 C18.15 0 36.3 0 55 0 C55 23.43 55 46.86 55 71 C54.01 70.505 54.01 70.505 53 70 C53.33 47.56 53.66 25.12 54 2 C36.84 2 19.68 2 2 2 C2 7.61 2 13.22 2 19 C2.99 19.33 3.98 19.66 5 20 C3.35 20 1.7 20 0 20 C0 13.4 0 6.8 0 0 Z " fill="#4BB22F" transform="translate(590,79)"/>
<path d="M0 0 C0.99 0.33 1.98 0.66 3 1 C1.02 1.99 1.02 1.99 -1 3 C-1.33 9.27 -1.66 15.54 -2 22 C-1.34 22.33 -0.68 22.66 0 23 C-1.98 23.99 -1.98 23.99 -4 25 C-4 17.41 -4 9.82 -4 2 C-2.68 1.34 -1.36 0.68 0 0 Z " fill="#46B02B" transform="translate(675,55)"/>
<path d="M0 0 C4.95 0 9.9 0 15 0 C15 0.66 15 1.32 15 2 C16.32 2.33 17.64 2.66 19 3 C12.4 3 5.8 3 -1 3 C-0.67 2.01 -0.34 1.02 0 0 Z " fill="#62BA4B" transform="translate(701,48)"/>
<path d="M0 0 C0.33 0.99 0.66 1.98 1 3 C-1.64 5.31 -4.28 7.62 -7 10 C-7.66 9.67 -8.32 9.34 -9 9 C-6.03 6.03 -3.06 3.06 0 0 Z " fill="#0786CC" transform="translate(170,56)"/>
<path d="M0 0 C2.31 0.33 4.62 0.66 7 1 C7.33 1.99 7.66 2.98 8 4 C8.66 4 9.32 4 10 4 C9.67 4.66 9.34 5.32 9 6 C4.05 4.02 4.05 4.02 -1 2 C-0.67 1.34 -0.34 0.68 0 0 Z " fill="#4FB336" transform="translate(1020,67)"/>
</svg>
